<svg xmlns="http://www.w3.org/2000/svg" xmlns:xlink="http://www.w3.org/1999/xlink" viewBox="0 0 800 520" width="800" height="520">
  <defs>
    <linearGradient id="ca-nav" x1="0" y1="0" x2="1" y2="0">
      <stop offset="0" stop-color="#2a1810"/><stop offset="1" stop-color="#3d2418"/>
    </linearGradient>
    <linearGradient id="ca-bottom" x1="0" y1="0" x2="0" y2="1">
      <stop offset="0" stop-color="rgba(250,247,242,0)"/><stop offset="1" stop-color="#faf7f2"/>
    </linearGradient>
  </defs>
  <rect width="800" height="520" fill="#faf7f2"/>
  <rect x="0" y="0" width="800" height="56" fill="url(#ca-nav)"/>
  <text x="28" y="37" fill="#f5ebe0" font-family="Georgia,serif" font-size="18" font-style="italic">Cafe Aura</text>
  <text x="200" y="34" fill="#d4b896" font-family="system-ui" font-size="11">Carta</text>
  <text x="270" y="34" fill="#d4b896" font-family="system-ui" font-size="11">Reservas</text>
  <text x="360" y="34" fill="#d4b896" font-family="system-ui" font-size="11">Eventos</text>
  <rect x="640" y="14" width="132" height="30" rx="6" fill="#c9a227"/>
  <text x="706" y="33" fill="#2a1810" font-family="system-ui" font-size="11" font-weight="800" text-anchor="middle">Reservar mesa</text>
  <image href="https://images.unsplash.com/photo-1555396273-367ea4eb4db1?auto=format&amp;fit=crop&amp;w=1200&amp;h=780&amp;q=80" x="0" y="56" width="800" height="280" preserveAspectRatio="xMidYMid slice"/>
  <rect x="0" y="260" width="800" height="76" fill="url(#ca-bottom)"/>
  <rect x="0" y="280" width="800" height="240" fill="#faf7f2"/>
  <text x="40" y="318" fill="#3d2914" font-family="system-ui" font-size="20" font-weight="900">Carta del dia</text>
  <line x1="40" y1="326" x2="128" y2="326" stroke="#c9a227" stroke-width="3"/>
  <rect x="40" y="342" width="360" height="52" rx="8" fill="#fff" stroke="#e8dfd0"/>
  <text x="56" y="366" fill="#3d2914" font-family="system-ui" font-size="13" font-weight="700">Brunch completo</text>
  <text x="56" y="384" fill="#8b7355" font-family="system-ui" font-size="11">Huevos, pan artesano, jugo natural</text>
  <text x="340" y="376" fill="#3d2914" font-family="system-ui" font-size="14" font-weight="900">16 EUR</text>
  <rect x="40" y="404" width="360" height="52" rx="8" fill="#fff" stroke="#e8dfd0"/>
  <text x="56" y="428" fill="#3d2914" font-family="system-ui" font-size="13" font-weight="700">Raciones para compartir</text>
  <text x="56" y="446" fill="#8b7355" font-family="system-ui" font-size="11">Raciones medianas · ideal 2 personas</text>
  <text x="330" y="438" fill="#3d2914" font-family="system-ui" font-size="14" font-weight="900"> desde 9 EUR</text>
  <rect x="430" y="318" width="330" height="178" rx="12" fill="#fff" stroke="#e8dfd0"/>
  <text x="450" y="352" fill="#3d2914" font-family="system-ui" font-size="15" font-weight="900">Reserva en linea</text>
  <rect x="450" y="368" width="290" height="40" rx="6" fill="#f5ebe0" stroke="#e0d5c8"/>
  <text x="464" y="392" fill="#8b7355" font-family="system-ui" font-size="11">Comensales, fecha, hora</text>
  <rect x="450" y="420" width="290" height="44" rx="8" fill="#3d2914"/>
  <text x="595" y="447" fill="#f5ebe0" font-family="system-ui" font-size="13" font-weight="800" text-anchor="middle">Buscar mesa libre</text>
</svg>
