<svg xmlns="http://www.w3.org/2000/svg" xmlns:xlink="http://www.w3.org/1999/xlink" viewBox="0 0 800 520" width="800" height="520">
  <defs>
    <linearGradient id="dn-hero" x1="0" y1="0" x2="0" y2="1">
      <stop offset="0" stop-color="rgba(12,74,110,0.88)"/><stop offset="1" stop-color="rgba(240,249,255,0.95)"/>
    </linearGradient>
  </defs>
  <rect width="800" height="520" fill="#f0f9ff"/>
  <rect x="0" y="0" width="800" height="40" fill="#0369a1"/>
  <text x="400" y="26" fill="#e0f2fe" font-family="system-ui" font-size="10" font-weight="600" text-anchor="middle">Urgencias 24h · L-V 8:00-20:00</text>
  <rect x="0" y="40" width="800" height="64" fill="#fff" stroke="#bae6fd"/>
  <text x="36" y="82" fill="#0c4a6e" font-family="system-ui" font-size="20" font-weight="900">Dental Nova</text>
  <text x="260" y="80" fill="#0369a1" font-family="system-ui" font-size="11">Implantes</text>
  <text x="360" y="80" fill="#0369a1" font-family="system-ui" font-size="11">Ortodoncia</text>
  <text x="480" y="80" fill="#0369a1" font-family="system-ui" font-size="11">Blanqueamiento</text>
  <rect x="636" y="56" width="132" height="34" rx="8" fill="#0ea5e9"/>
  <text x="702" y="77" fill="#fff" font-family="system-ui" font-size="11" font-weight="800" text-anchor="middle">Cita online</text>
  <image href="https://images.unsplash.com/photo-1629909613654-28e377c37b09?auto=format&amp;fit=crop&amp;w=1200&amp;h=780&amp;q=80" x="0" y="104" width="800" height="260" preserveAspectRatio="xMidYMid slice"/>
  <rect x="0" y="104" width="800" height="260" fill="url(#dn-hero)"/>
  <text x="40" y="260" fill="#fff" font-family="system-ui" font-size="30" font-weight="900">Primera visita valoracion</text>
  <text x="40" y="296" fill="#bae6fd" font-family="system-ui" font-size="14">Radiografia digital incluida · plan claro sin letra pequena</text>
  <rect x="40" y="318" width="168" height="44" rx="8" fill="#fff"/>
  <text x="124" y="346" fill="#0c4a6e" font-family="system-ui" font-size="13" font-weight="900" text-anchor="middle">Solicitar hueco</text>
  <rect x="0" y="364" width="800" height="156" fill="#f0f9ff"/>
  <rect x="36" y="388" width="240" height="116" rx="10" fill="#fff" stroke="#e0f2fe"/>
  <text x="52" y="420" fill="#0c4a6e" font-family="system-ui" font-size="12" font-weight="800">Implantes All-on-4</text>
  <text x="52" y="442" fill="#64748b" font-family="system-ui" font-size="10">Financiacion 0% · garantia escrita</text>
  <rect x="292" y="388" width="240" height="116" rx="10" fill="#fff" stroke="#e0f2fe"/>
  <text x="308" y="420" fill="#0c4a6e" font-family="system-ui" font-size="12" font-weight="800">Ortodoncia invisible</text>
  <text x="308" y="442" fill="#64748b" font-family="system-ui" font-size="10">Scanner 3D · simulacion previa</text>
  <rect x="548" y="388" width="216" height="116" rx="10" fill="#0c4a6e"/>
  <text x="656" y="440" fill="#fff" font-family="system-ui" font-size="28" font-weight="900" text-anchor="middle">4.8</text>
  <text x="656" y="468" fill="#bae6fd" font-family="system-ui" font-size="10" text-anchor="middle">+320 opiniones verificadas</text>
</svg>
