<svg xmlns="http://www.w3.org/2000/svg" xmlns:xlink="http://www.w3.org/1999/xlink" viewBox="0 0 800 520" width="800" height="520">
  <defs>
    <linearGradient id="lb-top" x1="0" y1="0" x2="0" y2="1">
      <stop offset="0" stop-color="#fff7fb"/><stop offset="1" stop-color="#fdf2f8"/>
    </linearGradient>
    <linearGradient id="lb-grad" x1="0" y1="0" x2="1" y2="1">
      <stop offset="0" stop-color="rgba(131,24,67,0.55)"/><stop offset="1" stop-color="rgba(190,24,93,0.25)"/>
    </linearGradient>
  </defs>
  <rect width="800" height="520" fill="url(#lb-top)"/>
  <rect x="0" y="0" width="800" height="58" fill="#fff" stroke="#fce7f3"/>
  <text x="32" y="40" fill="#831843" font-family="Georgia,serif" font-size="22" font-style="italic">Liora</text>
  <text x="120" y="36" fill="#9d174d" font-family="system-ui" font-size="11">Tratamientos</text>
  <text x="230" y="36" fill="#9d174d" font-family="system-ui" font-size="11">Resultados</text>
  <text x="340" y="36" fill="#9d174d" font-family="system-ui" font-size="11">Equipo</text>
  <rect x="612" y="14" width="156" height="32" rx="16" fill="#be185d"/>
  <text x="690" y="34" fill="#fff" font-family="system-ui" font-size="11" font-weight="700" text-anchor="middle">Valoracion online</text>
  <image href="https://images.unsplash.com/photo-1570172619643-df0379f38d67?auto=format&amp;fit=crop&amp;w=1200&amp;h=780&amp;q=80" x="0" y="58" width="800" height="300" preserveAspectRatio="xMidYMid slice"/>
  <rect x="0" y="58" width="800" height="300" fill="url(#lb-grad)"/>
  <text x="40" y="260" fill="#fff" font-family="Georgia,serif" font-size="32" font-style="italic">Medicina estetica</text>
  <text x="40" y="292" fill="#fce7f3" font-family="system-ui" font-size="14">Plan personalizado · primera visita informativa</text>
  <rect x="40" y="312" width="156" height="44" rx="22" fill="#fff"/>
  <text x="118" y="340" fill="#831843" font-family="system-ui" font-size="13" font-weight="800" text-anchor="middle">Pedir cita</text>
  <rect x="0" y="358" width="800" height="162" fill="#fff"/>
  <rect x="40" y="382" width="240" height="120" rx="10" fill="#fdf2f8" stroke="#fbcfe8"/>
  <text x="56" y="412" fill="#831843" font-family="system-ui" font-size="12" font-weight="800">Facial tensor</text>
  <text x="56" y="434" fill="#64748b" font-family="system-ui" font-size="10">Sesion 50 min · protocolo medico</text>
  <text x="56" y="458" fill="#be185d" font-family="system-ui" font-size="13" font-weight="900">desde 89 EUR</text>
  <rect x="300" y="382" width="240" height="120" rx="10" fill="#fdf2f8" stroke="#fbcfe8"/>
  <text x="316" y="412" fill="#831843" font-family="system-ui" font-size="12" font-weight="800">Corporal</text>
  <text x="316" y="434" fill="#64748b" font-family="system-ui" font-size="10">Definicion suave · sin cirugia</text>
  <rect x="560" y="382" width="200" height="120" rx="10" fill="#831843"/>
  <text x="660" y="430" fill="#fff" font-family="system-ui" font-size="22" font-weight="900" text-anchor="middle">4.9</text>
  <text x="660" y="454" fill="#fce7f3" font-family="system-ui" font-size="10" text-anchor="middle">Google Reviews</text>
</svg>
