<svg xmlns="http://www.w3.org/2000/svg" xmlns:xlink="http://www.w3.org/1999/xlink" viewBox="0 0 800 520" width="800" height="520">
  <defs>
    <linearGradient id="nf-overlay" x1="0" y1="0" x2="0" y2="1">
      <stop offset="0" stop-color="rgba(15,23,42,0.85)"/><stop offset="0.5" stop-color="rgba(15,23,42,0.35)"/>
      <stop offset="1" stop-color="rgba(15,23,42,0.92)"/>
    </linearGradient>
  </defs>
  <rect width="800" height="520" fill="#0b1220"/>
  <rect x="0" y="0" width="800" height="54" fill="#0f172a"/>
  <text x="28" y="36" fill="#fff" font-family="system-ui" font-size="17" font-weight="900" letter-spacing="-0.02em">NEXA FIT</text>
  <text x="190" y="34" fill="#94a3b8" font-family="system-ui" font-size="11">Clases</text>
  <text x="270" y="34" fill="#94a3b8" font-family="system-ui" font-size="11">Horarios</text>
  <text x="360" y="34" fill="#94a3b8" font-family="system-ui" font-size="11">Membresias</text>
  <rect x="632" y="12" width="148" height="32" rx="6" fill="#3b82f6"/>
  <text x="706" y="32" fill="#fff" font-family="system-ui" font-size="11" font-weight="800" text-anchor="middle">Prueba gratis</text>
  <image href="https://images.unsplash.com/photo-1534438327276-14e5300c3a48?auto=format&amp;fit=crop&amp;w=1200&amp;h=780&amp;q=80" x="0" y="54" width="800" height="466" preserveAspectRatio="xMidYMid slice"/>
  <rect x="0" y="54" width="800" height="466" fill="url(#nf-overlay)"/>
  <text x="40" y="280" fill="#fff" font-family="system-ui" font-size="36" font-weight="900">HIIT + fuerza guiada</text>
  <text x="40" y="318" fill="#93c5fd" font-family="system-ui" font-size="15">Entrenadores certificados ť nutricion opcional</text>
  <rect x="40" y="344" width="168" height="48" rx="8" fill="#fff"/>
  <text x="124" y="374" fill="#0f172a" font-family="system-ui" font-size="14" font-weight="900" text-anchor="middle">Apuntarme hoy</text>
  <rect x="224" y="344" width="200" height="48" rx="8" fill="rgba(255,255,255,0.1)" stroke="rgba(255,255,255,0.35)"/>
  <text x="324" y="374" fill="#fff" font-family="system-ui" font-size="14" font-weight="600" text-anchor="middle">Ver calendario</text>
  <rect x="480" y="240" width="280" height="200" rx="12" fill="rgba(15,23,42,0.75)" stroke="rgba(59,130,246,0.45)"/>
  <text x="500" y="276" fill="#93c5fd" font-family="system-ui" font-size="11" font-weight="700">CLASE HOY 19:00</text>
  <text x="500" y="304" fill="#fff" font-family="system-ui" font-size="16" font-weight="800">Full body ť 45 min</text>
  <text x="500" y="332" fill="#94a3b8" font-family="system-ui" font-size="11">Plazas: 4 / 12</text>
  <rect x="500" y="352" width="240" height="40" rx="6" fill="#3b82f6"/>
  <text x="620" y="377" fill="#fff" font-family="system-ui" font-size="12" font-weight="800" text-anchor="middle">Reservar plaza</text>
</svg>
