<svg xmlns="http://www.w3.org/2000/svg" viewBox="0 0 800 520" width="800" height="520">
  <defs>
    <linearGradient id="bp-bg" x1="0%" y1="0%" x2="0%" y2="100%">
      <stop offset="0%" stop-color="#1a1510"/>
      <stop offset="100%" stop-color="#0d0b08"/>
    </linearGradient>
    <linearGradient id="bp-gold" x1="0%" y1="0%" x2="100%" y2="0%">
      <stop offset="0%" stop-color="#c9a227"/>
      <stop offset="100%" stop-color="#8b6914"/>
    </linearGradient>
  </defs>
  <rect width="800" height="520" fill="url(#bp-bg)"/>
  <!-- top bar -->
  <rect x="0" y="0" width="800" height="52" fill="#12100c"/>
  <text x="40" y="34" fill="#e8dcc4" font-family="system-ui, -apple-system, sans-serif" font-size="18" font-weight="700">BARBER PRIME</text>
  <rect x="520" y="16" width="64" height="22" rx="4" fill="none" stroke="#a08b60" stroke-width="1"/>
  <text x="552" y="31" fill="#a08b60" font-family="system-ui" font-size="10" text-anchor="middle">SERVICIOS</text>
  <rect x="600" y="16" width="72" height="22" rx="4" fill="url(#bp-gold)"/>
  <text x="636" y="31" fill="#1a1510" font-family="system-ui" font-size="10" font-weight="700" text-anchor="middle">RESERVAR</text>
  <!-- hero -->
  <rect x="40" y="72" width="420" height="200" rx="8" fill="#2a2218" stroke="#3d3428"/>
  <text x="60" y="118" fill="#f5ebe0" font-family="system-ui" font-size="28" font-weight="800">Corte + barba</text>
  <text x="60" y="148" fill="#a08b60" font-family="system-ui" font-size="13">Reserva online en 2 clics À Madrid Centro</text>
  <rect x="60" y="168" width="120" height="36" rx="6" fill="url(#bp-gold)"/>
  <text x="120" y="191" fill="#1a1510" font-family="system-ui" font-size="12" font-weight="700" text-anchor="middle">Pedir cita</text>
  <rect x="500" y="72" width="260" height="200" rx="8" fill="#252018"/>
  <rect x="520" y="92" width="220" height="140" rx="4" fill="#1a1510" opacity="0.9"/>
  <!-- cards row -->
  <rect x="40" y="300" width="230" height="180" rx="8" fill="#16130f" stroke="#2a241c"/>
  <rect x="56" y="318" width="198" height="90" rx="4" fill="#221c16"/>
  <text x="56" y="432" fill="#e8dcc4" font-family="system-ui" font-size="14" font-weight="700">Pack Premium</text>
  <text x="56" y="452" fill="#7a6b55" font-family="system-ui" font-size="11">45¼ À incluye styling</text>
  <rect x="285" y="300" width="230" height="180" rx="8" fill="#16130f" stroke="#2a241c"/>
  <rect x="301" y="318" width="198" height="90" rx="4" fill="#221c16"/>
  <text x="301" y="432" fill="#e8dcc4" font-family="system-ui" font-size="14" font-weight="700">Horarios</text>
  <text x="301" y="452" fill="#7a6b55" font-family="system-ui" font-size="11">LunSßb 10:0021:00</text>
  <rect x="530" y="300" width="230" height="180" rx="8" fill="#16130f" stroke="#2a241c"/>
  <rect x="546" y="318" width="198" height="90" rx="4" fill="#221c16"/>
  <text x="546" y="432" fill="#e8dcc4" font-family="system-ui" font-size="14" font-weight="700">GalerÝa</text>
  <text x="546" y="452" fill="#7a6b55" font-family="system-ui" font-size="11">Trabajos recientes</text>
</svg>
