<svg xmlns="http://www.w3.org/2000/svg" viewBox="0 0 800 520" width="800" height="520">
  <defs>
    <linearGradient id="gs-bg" x1="0%" y1="0%" x2="100%" y2="100%">
      <stop offset="0%" stop-color="#0f172a"/>
      <stop offset="50%" stop-color="#1e1b4b"/>
      <stop offset="100%" stop-color="#134e4a"/>
    </linearGradient>
  </defs>
  <rect width="800" height="520" fill="url(#gs-bg)"/>
  <rect x="0" y="0" width="800" height="54" fill="rgba(255,255,255,0.06)"/>
  <text x="40" y="36" fill="#5eead4" font-family="system-ui" font-size="11" letter-spacing="0.2em">GLOW STUDIO</text>
  <text x="220" y="34" fill="#94a3b8" font-family="system-ui" font-size="11">Tratamientos</text>
  <text x="340" y="34" fill="#94a3b8" font-family="system-ui" font-size="11">Resultados</text>
  <rect x="620" y="12" width="140" height="32" rx="16" fill="#2dd4bf"/>
  <text x="690" y="33" fill="#0f172a" font-family="system-ui" font-size="11" font-weight="800" text-anchor="middle">WhatsApp</text>
  <rect x="40" y="80" width="420" height="220" rx="12" fill="rgba(255,255,255,0.06)" stroke="rgba(45,212,191,0.35)"/>
  <text x="64" y="130" fill="#f8fafc" font-family="system-ui" font-size="28" font-weight="800">Agenda abierta</text>
  <text x="64" y="168" fill="#94a3b8" font-family="system-ui" font-size="14">Medicina estética · sin cirugía</text>
  <rect x="64" y="196" width="140" height="40" rx="8" fill="#2dd4bf"/>
  <text x="134" y="221" fill="#0f172a" font-family="system-ui" font-size="12" font-weight="800" text-anchor="middle">Reservar cita</text>
  <rect x="490" y="80" width="270" height="220" rx="12" fill="rgba(15,23,42,0.8)" stroke="rgba(148,163,184,0.2)"/>
  <rect x="510" y="100" width="110" height="140" rx="6" fill="#334155"/>
  <rect x="630" y="100" width="110" height="64" rx="6" fill="#2dd4bf" opacity="0.35"/>
  <rect x="630" y="176" width="110" height="64" rx="6" fill="#475569"/>
  <text x="510" y="268" fill="#cbd5e1" font-family="system-ui" font-size="10">Antes / después (ejemplo)</text>
  <rect x="40" y="330" width="720" height="150" rx="10" fill="rgba(255,255,255,0.04)" stroke="rgba(148,163,184,0.15)"/>
  <text x="60" y="368" fill="#f8fafc" font-family="system-ui" font-size="13" font-weight="700">Tratamientos estrella</text>
  <rect x="60" y="388" width="200" height="72" rx="6" fill="rgba(45,212,191,0.12)"/>
  <text x="70" y="418" fill="#5eead4" font-family="system-ui" font-size="11" font-weight="600">HIFU facial</text>
  <text x="70" y="438" fill="#94a3b8" font-family="system-ui" font-size="9">Sesión 60 min</text>
  <rect x="280" y="388" width="200" height="72" rx="6" fill="rgba(45,212,191,0.12)"/>
  <rect x="500" y="388" width="240" height="72" rx="6" fill="rgba(45,212,191,0.12)"/>
</svg>
