<svg xmlns="http://www.w3.org/2000/svg" viewBox="0 0 800 520" width="800" height="520">
  <defs>
    <linearGradient id="lb-hero" x1="0%" y1="0%" x2="100%" y2="0%">
      <stop offset="0%" stop-color="#fdf2f8"/>
      <stop offset="100%" stop-color="#fce7f3"/>
    </linearGradient>
  </defs>
  <rect width="800" height="520" fill="#faf5f8"/>
  <rect x="0" y="0" width="800" height="58" fill="#fff" stroke="#f3e8ee"/>
  <text x="40" y="38" fill="#831843" font-family="Georgia, serif" font-size="22" font-style="italic">Liora</text>
  <text x="120" y="36" fill="#9d174d" font-family="system-ui" font-size="11">Tratamientos</text>
  <text x="220" y="36" fill="#9d174d" font-family="system-ui" font-size="11">Antes y después</text>
  <text x="340" y="36" fill="#9d174d" font-family="system-ui" font-size="11">Equipo</text>
  <rect x="620" y="14" width="140" height="32" rx="16" fill="#be185d"/>
  <text x="690" y="35" fill="#fff" font-family="system-ui" font-size="11" font-weight="600" text-anchor="middle">Valoración</text>
  <rect x="32" y="78" width="360" height="240" rx="12" fill="url(#lb-hero)" stroke="#fbcfe8"/>
  <text x="56" y="130" fill="#831843" font-family="Georgia, serif" font-size="26">Belleza con criterio médico</text>
  <text x="56" y="162" fill="#a21caf" font-family="system-ui" font-size="13" opacity="0.85">Diagnóstico personalizado · sin compromiso</text>
  <rect x="56" y="188" width="130" height="38" rx="19" fill="#831843"/>
  <text x="121" y="212" fill="#fff" font-family="system-ui" font-size="12" font-weight="600" text-anchor="middle">Pedir cita</text>
  <rect x="410" y="78" width="358" height="240" rx="12" fill="#fce7f3"/>
  <rect x="430" y="98" width="318" height="200" rx="8" fill="#fbcfe8" opacity="0.5"/>
  <rect x="450" y="120" width="120" height="140" rx="6" fill="#f9a8d4" opacity="0.4"/>
  <rect x="590" y="120" width="120" height="64" rx="6" fill="#fff" stroke="#f9a8d4"/>
  <rect x="590" y="196" width="120" height="64" rx="6" fill="#fff" stroke="#f9a8d4"/>
  <rect x="32" y="338" width="240" height="150" rx="10" fill="#fff" stroke="#fce7f3"/>
  <text x="48" y="368" fill="#831843" font-family="system-ui" font-size="12" font-weight="700">Facial rejuvenecedor</text>
  <text x="48" y="392" fill="#9d174d" font-family="system-ui" font-size="10" opacity="0.8">Desde 89¬ · 50 min</text>
  <rect x="288" y="338" width="240" height="150" rx="10" fill="#fff" stroke="#fce7f3"/>
  <text x="304" y="368" fill="#831843" font-family="system-ui" font-size="12" font-weight="700">Corporal</text>
  <rect x="544" y="338" width="224" height="150" rx="10" fill="#fff" stroke="#fce7f3"/>
  <text x="560" y="368" fill="#831843" font-family="system-ui" font-size="12" font-weight="700">Reseńas Google</text>
  <text x="560" y="400" fill="#64748b" font-family="system-ui" font-size="28" font-weight="700">4.9</text>
</svg>
